<?xml version="1.0" encoding="UTF-8"?>
<svg id="Layer_2" data-name="Layer 2" xmlns="http://www.w3.org/2000/svg" viewBox="0 0 903.1 899.26">
  <defs>
    <style>
      .cls-1 {
        fill: none;
        stroke: #dadadaff;
        stroke-miterlimit: 10;
        stroke-width: .5px;
      }
    </style>
  </defs>
  <g id="Base">
    <path class="cls-1" d="m396.81,384.95c-9.63-2.53-18.92.81-27.93,4.62-2.1.88-3.74,4.18-4.48,6.7-2.78,9.42-5.86,18.88-4.85,28.93.44,4.41-1.4,7.36-5.12,9.17-7.66,3.74-15.13,8.19-23.19,10.72-10.93,3.43-15.51-1.82-13.06-13.02,2.76-12.61,4.81-25.38,7.69-37.96,4.02-17.54,8.07-35.09,12.94-52.41,7.85-27.92,16.7-55.57,24.44-83.52,2.83-10.23,9.29-17.05,16.75-23.62,2.46-2.17,4.53-4.8,7.91-8.43-7.7-1.79-13.33-1.75-19.14.45-5.25,1.99-10.71,3.42-16.28,5.16-1.93-8.1,3.05-14.31,5.12-21.66-2.48-.19-4.35-.55-6.19-.43-7.26.5-14.5,1.34-21.76,1.69-10.54.5-12.24,2.11-14.23,12.34-2.36,12.08-5.27,24.06-7.86,36.1-2.45,11.37-4.96,22.73-7.17,34.15-1.81,9.34-3.32,18.75-4.75,28.16-1.8,11.81-3.43,23.64-5.06,35.48-1.94,14.08-4.07,28.14-5.62,42.26-1.14,10.4-1.43,20.9-2.2,31.34-.28,3.77-.51,7.61-1.38,11.26-1.76,7.37-2.22,7.87-9.33,6.96-11.61-1.49-20.77-7.47-27.37-17.03-1.49-2.16-2.41-5.45-2.07-8.02,2.12-15.93,4.74-31.79,7.07-47.69,2.16-14.71,3.84-29.5,6.34-44.15,2.28-13.37,5.35-26.6,8.12-39.88,2.37-11.38,4.18-22.93,7.42-34.07,3.05-10.5,5.33-21.64,14.94-29.09,2.72-2.11,4.23-5.77,6.8-9.44-10.2-1.93-18.43-.41-26.67,2.3-7.18,2.36-14.49,4.43-21.85,6.12-4.71,1.09-6.88-.65-6-4.5,2.72-11.93,4.56-24.07,12.55-34.29,4.21-5.4,9.54-8.73,15.45-10.38,14-3.91,28.18-7.54,42.52-9.83,14.36-2.29,29.01-2.76,43.52-4.16,3.76-.36,7.46-1.33,11.22-1.78,4.52-.54,6.01,1.71,5.75,6.12-.32,5.35-.08,10.73-.08,16.1,8.63-3.53,16.86-7.36,25.39-10.29,16.74-5.74,34.12-6.93,51.7-6.29,3.78.14,5.22,1.73,4.92,5.25-.68,7.88-1.31,15.77-2.17,23.63-1.02,9.4-2.18,18.78-3.4,28.15-1.05,8.15-2.4,16.26-3.37,24.42-1.01,8.49-1.72,17.01-2.55,25.53-.65,6.62-1.47,13.23-1.86,19.86-.79,13.64-1.27,27.29-2.03,40.93-.33,5.98-1.38,11.93-1.49,17.91-.08,4.36,1.19,8.74,1.26,13.12.23,15.04.15,30.08.28,45.11.02,2.99.42,5.97.64,8.96.71.07,1.42.15,2.13.22,1.37-5.23,2.94-10.41,4.06-15.69.92-4.33,1.86-7.38,7.63-7.36,4.89.02,9.74-2.76,14.7-3.13,5.07-.38,5.13-3.04,5.43-6.9,1.14-14.51,2.14-29.05,4.17-43.45,1.76-12.43,4.9-24.66,7.33-37,3.48-17.64,6.95-35.28,10.24-52.95,1.34-7.18,4.45-13.15,10.13-17.81,1.97-1.62,3.97-3.37,5.37-5.45,2.74-4.06.84-8.13-3.92-7.46-10.94,1.53-21.77,3.91-32.6,6.16-3.02.63-5.89,2-9.25,3.18-2.69-8.48-.06-15.92,2.07-23.45,5.58-19.69,19.92-29.48,38.7-33.71,16.33-3.68,32.64-7.67,49.55-8.13,5.36-.15,10.68-1.28,16.03-1.88,3.86-.43,6.05.89,5.83,5.27-.72,14.1-3.93,27.44-11.2,39.71-2.73,4.61-6.99,6.11-11.74,6.87-1.87.3-3.83.04-5.75.05-12.57.05-15.35,2.76-17.38,15.1-2.51,15.26-5.71,30.4-8.29,45.65-2.52,14.9-4.62,29.88-6.95,44.82-1.75,11.21-3.69,22.39-5.32,33.61-1.05,7.18-1.91,14.41-2.45,21.64-.42,5.67.92,6.99,6.64,6.06,6.56-1.07,13.18-2.37,19.42-4.57,3.89-1.37,4.49.75,5.44,3.02.6,1.42,1.04,3.12.87,4.62-1.28,11.4-3.2,22.69-9.89,32.39-1.54,2.23-4.04,4.04-6.47,5.37-16.23,8.89-33.56,14.57-51.92,16.94-6.12.79-12.27,1.57-18.42,1.88-10.12.5-11.58-.99-13.01-11.7-.12-.87-.48-1.71-.84-2.92-1.9.95-3.8,1.52-5.21,2.67-7.73,6.3-17.33,7.49-26.49,9.73-4.41,1.08-8.53-2.82-9.65-7.06-4.52-17.13,1.13-33.95.79-51.39Zm10.25-137.67c-14.86,29.93-25.75,60.89-31.85,94.66,7.46-.81,14.55-1.48,21.6-2.5.75-.11,1.59-2.25,1.72-3.52,1.18-11.56,2.14-23.15,3.3-34.72.66-6.58,1.55-13.13,2.37-19.69,1.13-9.05,2.39-18.09,3.37-27.16.25-2.31-.32-4.71-.51-7.06Z"/>
    <path class="cls-1" d="m509.34,717.28c-4.33.85-9.56,1.9-14.8,2.9-9.49,1.82-25.89-7.1-29.94-16.71-4.57-10.83-8.72-21.72-9.1-33.74-.22-6.95-1.99-13.9-1.75-20.8,1.72-49.71,15.71-95.17,47.19-134.52,9.95-12.43,20.34-24.32,34.2-32.57,4.04-2.4,8.35-4.36,12.55-6.49,3.66-1.86,5.82-.39,7.66,3.01,5.73,10.61,8.38,21.86,7.78,33.89-.29,5.77-3.47,9.36-8.5,11.65-12.58,5.7-24.01,13.1-32.8,23.89-5.77,7.09-11.6,14.27-16.27,22.08-10.82,18.07-16.92,37.66-19.67,58.73-1.69,12.96-1.38,25.17,2.43,37.43,1.53,4.92,3.42,9.97,9.87,10.07,6.94.11,11.39-4.83,16.26-8.72.74-.59.51-2.41.71-3.67,1.56-9.78,2.36-19.77,4.97-29.26,1.49-5.39,4.86-10.75,10.26-14.02,1.77-1.07,3.57-2.41,4.73-4.07.75-1.06.96-3.37.28-4.3-.6-.83-2.89-1.02-4.2-.66-6.67,1.82-13.26,3.94-19.89,5.9-6.96,2.06-8.7.44-7.62-6.54.98-6.3,6.58-11.37,4.8-18.36,7.49-6.61,13.66-15.11,23.96-17.81,6.58-1.73,13.67-1.97,19.88-4.49,7.06-2.87,12.87.35,19.24,1.76,10-26.37,24.88-49.33,44.88-68.87,9.1-8.89,18.46-17.51,27.82-26.13,4.99-4.6,7.43-4.38,11.48,1.08,8.9,11.99,10.75,25.86,8.56,39.99-.59,3.83-5.48,7.68-9.26,10.22-11.97,8.04-22.53,17.52-32.51,27.88-9.2,9.55-14.47,21.03-16.62,33.56-.92,5.34,1.55,12,4.31,17.06,4.06,7.44,9.52,14.17,14.82,20.85,6.99,8.8,13.15,17.93,13.85,29.54.36,5.96,1.1,11.97-2.19,17.71-5.49,9.57-10.23,19.58-15.8,29.11-6.1,10.44-15.89,17.22-25.95,23.25-9.5,5.7-19.11,3.62-25.5-5.66-4.07-5.92-6.77-12.84-9.71-19.47-1.76-3.96.22-6.8,4.15-8.02,11.29-3.5,20.16-10.45,28.08-18.97,7.95-8.55,8.29-18.88,7.18-29.48-.2-1.88-2.33-3.69-3.85-5.27-5.09-5.31-10.38-10.42-15.44-15.75-8.61-9.09-13.27-19.54-11.09-32.41.47-2.77.07-5.7.07-9.12-4.36,1.1-4.9,4.56-5.54,7.18-4.65,18.96-9.45,37.89-13.28,57.02-2.23,11.11-2.69,22.56-4.08,33.84-1.12,9.09-2.67,18.13-3.61,27.23-.52,5.06-.13,10.21-.26,15.31-.24,9.31-6.71,14.34-15.73,11.68-4.21-1.24-8.76-3.03-11.79-5.98-2.58-2.51-3.2-7.04-5.21-11.96Z"/>
    <path class="cls-1" d="m282.44,635.71c-1.49,7.23-2.93,11.98-3.38,16.82-1.52,16.38-2.44,32.82-4.11,49.19-.76,7.51-3.49,14.83-.26,22.45.46,1.09-.92,3.66-2.16,4.67-8.26,6.71-28.46,2.55-32.89-7.22-1.55-3.42-.59-8.06-.41-12.13.12-2.81.99-5.57,1.34-8.37,1.88-15.32,3.51-30.67,5.61-45.96,2.4-17.48,4.89-34.95,7.92-52.33,2.33-13.35,5.53-26.55,8.39-39.81.93-4.32,2.57-8.58,2.84-12.93.46-7.53,3.87-13.28,9.07-18.29,1.15-1.11,2.39-2.17,3.33-3.45,2.3-3.15,1.31-5.68-2.53-5.72-3.09-.03-6.21.82-9.27,1.49-2.16.47-4.21,1.45-6.37,1.92-4.25.93-6.54-.94-5.37-5.01,2.79-9.69,6.1-19.23,9.14-28.85,1.86-5.88,5.93-9.68,11.31-12.28,14.76-7.13,30.35-9.38,46.35-6.42,15.55,2.87,23.75,13.92,27.08,28.45,3.91,17.07,5.47,34.26,2.28,51.9-2.65,14.68-4.42,29.51-11.7,42.75-4.84,8.79-9.88,17.72-16.37,25.28-4.32,5.04-5.6,9.95-4.8,15.63,1.44,10.25,3.03,20.55,5.57,30.57,3.28,12.94,7.16,25.76,11.59,38.34,1.76,5,1.95,8.52-2.56,11.51-5.74,3.81-11.2,8.3-17.42,11.05-6.19,2.74-8.65.81-11.14-5.8-6.23-16.54-11.3-33.35-13.14-51.05-.94-9.08-2.41-18.11-3.96-27.11-.43-2.52-2.02-4.83-3.98-9.29Zm36.82-88.8c0-4.19.4-7.13-.09-9.92-.82-4.59-2.12-9.11-3.41-13.61-1.01-3.54-3.48-4.87-7.23-4.8-4.08.08-4.32,2.81-4.98,5.68-2.02,8.87-4.42,17.66-6.24,26.56-3.08,15.09-5.88,30.23-8.64,45.38-.25,1.38.19,3.6,1.14,4.28.9.65,3.21.28,4.34-.48,6.04-4.06,12.09-7.81,15.17-15.28,5.21-12.64,11.3-24.9,9.93-37.83Z"/>
    <path class="cls-1" d="m342.28,664.59c-1.17-22.41,3.56-45.73,8.57-68.9,6.93-32.03,14.88-63.84,22.42-95.73.43-1.84,1.24-3.59,1.64-5.43.87-4.06,2.65-4.3,6.8-3.55,7.2,1.31,14.3,2.25,20.79,5.96,8.68,4.97,9.44,6.38,6.07,15.62-11.07,30.35-18.42,61.63-24.14,93.37-3.32,18.41-6.56,36.78-5.67,55.6.06,1.28-.06,2.56.03,3.84.47,6.96,4.29,12.05,9.37,12.57,6.54.66,14.37-4.41,15.58-10.56,1.51-7.72,2.61-15.52,3.81-23.3,2.02-13.08,3.68-26.22,6.04-39.23,3.55-19.57,7.22-39.12,11.49-58.54,4.34-19.7,9.18-39.3,14.36-58.79,2.9-10.93,6.27-12.87,17.81-12.99,3.83-.04,7.67-.14,11.5-.07,8.14.14,9.03,1.25,7.2,8.87-2.44,10.12-5.02,20.21-7.39,30.35-5.08,21.79-10.17,43.58-15.04,65.41-4.44,19.93-8.7,39.91-12.81,59.92-1.2,5.85-1.78,11.85-2.35,17.82-.81,8.51-1.42,17.03-1.97,25.56-.73,11.4-1.49,22.79-1.86,34.2-.13,4.07-1.4,5.56-5.56,5.63-9.43.17-18.24-1.46-25.8-7.41-1.91-1.5-3.25-2.45-5.82-.98-3.1,1.77-6.66,2.73-10.01,4.07-16.49,6.58-35.08-1.5-41.14-18.02-1.93-5.25-3.15-10.9-3.77-16.47-.64-5.68-.14-11.49-.14-18.82Z"/>
    <path class="cls-1" d="m664.77,202.52c2.35,9.49-2.56,16.44-11.64,21.4-14.48,7.9-26.01,19.46-36.81,31.55-9,10.08-14.69,22.43-16.44,35.87-.84,6.43,1.21,13.15,5.32,18.76,7.12,9.71,14.24,19.41,21.31,29.15,10.49,14.47,12.38,29.66,6.12,46.75-5.36,14.61-12.99,27.59-23.23,38.9-8.84,9.76-20.41,15.99-33.06,19.73-2.36.7-5.83.22-7.88-1.12-12.05-7.8-16.4-20.53-20.21-33.41-.26-.89,1.89-3.04,3.34-3.78,4.79-2.43,9.93-4.21,14.66-6.74,9.99-5.36,18.42-12.51,23.6-22.85,7.64-15.25,4.88-28.81-8.98-38.69-12.25-8.73-20.7-19.69-22.36-34.64-.81-7.33.04-15.1,1.58-22.37,4.8-22.75,16.38-42.38,29.94-60.87,10.37-14.15,22.16-27.14,35.08-39,6.06-5.56,12.59-10.69,19.31-15.44,5.49-3.89,6.79-3.45,10.64,2.33,6.67,10.03,10.5,20.98,9.74,34.48Z"/>
    <path class="cls-1" d="m868.39,295.79c-2.47,13.03,2.76,23.54,10.68,33.29,2.78,3.43,5.04,7.28,7.48,10.98,6.43,9.74,9.2,21.01,6.35,31.8-5.17,19.57-4.92,38.23,4.54,56.11,8.58,16.22,6.15,31.63-1.48,47.04-7.68,15.52-7.75,31.25-3.7,47.93,2.75,11.32,3.17,23.29-4.98,33.66-4.29,5.45-7.96,11.42-11.64,17.32-4.75,7.61-7.64,15.67-7.44,24.99.18,8.17-.95,16.39-1.73,24.56-1.06,11.1-7.12,19.17-15.64,25.91-11.34,8.97-21.01,19.29-24.67,33.9-1.9,7.59-3.58,15.24-5.79,22.73-2.62,8.89-8.23,15.36-16.45,19.92-7.11,3.94-14.08,8.3-20.59,13.17-9.84,7.36-13.63,18.88-18.46,29.48-6.18,13.56-16.32,22.45-30.4,26.45-16.93,4.82-31.37,12.72-41.08,28.09-3.02,4.78-7.27,8.78-10.95,13.14-6.37,7.55-15.14,9.4-24.35,10.76-12.34,1.83-25.36,1.21-36.21,9.05-2.17,1.57-4.37,3.1-6.4,4.83-6.27,5.38-11.99,11.56-18.81,16.1-9.21,6.13-20.22,5.8-30.47,3.9-16.35-3.03-31.06-1.24-44.93,8.53-13.04,9.18-27.3,12.37-42.78,5.72-4.3-1.85-9.05-2.63-13.53-4.08-10.74-3.49-21.19-2.21-31.6,1.45-4.74,1.67-9.71,2.74-14.39,4.56-8.29,3.24-16.23,2.18-23.79-1.75-9.92-5.14-19.58-10.77-29.43-16.05-1.18-.63-2.84-.66-4.24-.54-9.76.85-19.53,1.63-29.25,2.77-15.92,1.87-28.26-4.93-39.17-15.55-2.52-2.45-5.05-4.91-7.69-7.22-9.5-8.32-21.45-11.3-33.21-11.45-19.8-.24-34.02-9.24-43.92-24.97-8.63-13.71-19.86-22.56-35.41-26.52-5.15-1.31-10.08-3.53-15.05-5.49-9.85-3.89-15.24-11.75-19.17-21.15-2.79-6.69-5.79-13.4-9.62-19.53-2.81-4.49-6.61-8.71-10.85-11.87-6.77-5.05-14.27-9.1-21.45-13.61-7.54-4.74-12.85-11.34-15.53-19.81-2.17-6.87-4.54-13.8-5.52-20.89-1.37-9.96-5.75-17.91-12.9-24.6-6.49-6.08-13.48-11.71-19.42-18.28-5.11-5.65-8.3-12.64-8.29-20.63,0-6.08-.09-12.16,0-18.24.13-10.08-2.8-19.01-8.34-27.56-6.31-9.74-14.62-18.51-17.25-30.27-.85-3.82-1.22-8.31-.04-11.91,2.44-7.47,4.28-14.47,2.94-22.68-1.15-7.06,1.11-14.62.62-21.88-.29-4.35-2.21-9.05-4.71-12.7-9.14-13.37-10.47-27.2-4.13-41.96,1.49-3.47,2.46-7.21,4.27-10.5,8.27-15.04,6.87-30.7,2.07-46.03-2.96-9.46-1.53-18.01,1.89-26.4,2.19-5.37,6.28-9.95,9.43-14.95,4.2-6.67,8.58-13.25,12.3-20.18,1.24-2.31.82-5.57.99-8.41.61-10.12.93-20.26,1.75-30.37,1-12.29,8.72-20.83,18.02-27.32,12.8-8.93,19.79-20.8,22.41-35.79.75-4.31,1.77-8.58,2.8-12.83,3.05-12.52,11.34-20.81,22.06-27.12,2.98-1.75,5.73-3.99,8.86-5.39,12.86-5.73,19.16-16.62,24.1-28.99,2.56-6.41,6-12.55,9.7-18.39,5.25-8.29,14.45-10.82,22.9-14.2,5.2-2.08,10.54-3.86,15.91-5.48,12.51-3.76,18.99-14.08,26.19-23.66,2.66-3.54,5.36-7.04,7.93-10.64,6.08-8.5,15.44-10.44,24.76-12.11,6.19-1.11,12.64-.89,18.78-2.18,12.27-2.57,22.84-8.65,32.07-17.14,3.24-2.98,6.8-5.6,10.11-8.51,9.97-8.75,21.53-7.44,33.33-5.68,15.44,2.3,30.02,1.03,43.23-8.93,13.14-9.91,28.02-12.48,43.9-7.1,5.07,1.72,10.09,3.57,15.18,5.21,10.76,3.48,21.04,0,31.29-2.58,6.96-1.75,13.7-4.4,20.62-6.31,6.17-1.7,11.85.83,17.34,3.14,5.82,2.45,12.01,4.65,16.95,8.38,6.91,5.22,15.01,6.34,22.74,8.81,1.75.56,3.82.25,5.73.14,10.44-.58,20.87-1.29,31.31-1.82,4.53-.23,8.92.16,11.3,5.03.39.79,1.31,1.82,2.06,1.87,9.61.75,14.34,8.95,20.72,14.19,8.78,7.21,18.45,10.36,29.33,11.59,7.45.84,14.93,1.96,22.2,3.76,7.85,1.94,13.89,6.58,18.69,13.48,4.76,6.85,9.38,13.86,15.35,19.94,6.02,6.14,13.22,9.6,20.95,12.49,1.77.66,3.55,1.39,5.39,1.72,18.74,3.38,30.04,15.23,36.01,32.49,5.44,15.71,16.43,25.84,30.63,33.35,4.44,2.35,8.58,5.31,12.69,8.24,8.65,6.17,11.15,15.79,13.67,25.3,1.28,4.84,2.12,9.8,3.22,14.7,2.96,13.15,11.38,22.86,21.6,30.49,14.02,10.47,19.65,24.15,19.46,40.98-.03,2.24,0,4.48,0,6.72Zm-471.58,89.16c.34,17.44-5.31,34.26-.79,51.39,1.12,4.25,5.25,8.14,9.65,7.06,9.15-2.24,18.76-3.43,26.49-9.73,1.42-1.16,3.32-1.72,5.21-2.67.36,1.21.72,2.05.84,2.92,1.43,10.72,2.89,12.21,13.01,11.7,6.16-.31,12.3-1.08,18.42-1.88,18.36-2.38,35.69-8.05,51.92-16.94,2.43-1.33,4.93-3.14,6.47-5.37,6.69-9.7,8.6-20.99,9.89-32.39.17-1.5-.27-3.2-.87-4.62-.95-2.27-1.56-4.39-5.44-3.02-6.24,2.2-12.86,3.5-19.42,4.57-5.72.93-7.07-.39-6.64-6.06.54-7.24,1.4-14.46,2.45-21.64,1.63-11.23,3.57-22.41,5.32-33.61,2.33-14.94,4.43-29.91,6.95-44.82,2.58-15.25,5.78-30.39,8.29-45.65,2.03-12.33,4.81-15.04,17.38-15.1,1.92,0,3.88.25,5.75-.05,4.75-.77,9.01-2.26,11.74-6.87,7.27-12.28,10.48-25.61,11.2-39.71.22-4.37-1.97-5.7-5.83-5.27-5.35.6-10.67,1.73-16.03,1.88-16.9.46-33.22,4.45-49.55,8.13-18.79,4.23-33.13,14.02-38.7,33.71-2.13,7.54-4.76,14.98-2.07,23.45,3.36-1.18,6.22-2.55,9.25-3.18,10.83-2.25,21.66-4.62,32.6-6.16,4.76-.67,6.67,3.4,3.92,7.46-1.41,2.08-3.41,3.83-5.37,5.45-5.67,4.67-8.79,10.63-10.13,17.81-3.3,17.67-6.77,35.31-10.24,52.95-2.43,12.34-5.58,24.57-7.33,37-2.03,14.39-3.03,28.94-4.17,43.45-.3,3.86-.36,6.52-5.43,6.9-4.96.37-9.81,3.15-14.7,3.13-5.77-.02-6.71,3.03-7.63,7.36-1.12,5.28-2.69,10.47-4.06,15.69-.71-.07-1.42-.15-2.13-.22-.22-2.99-.62-5.97-.64-8.96-.12-15.04-.05-30.08-.28-45.11-.07-4.38-1.34-8.76-1.26-13.12.11-5.98,1.15-11.93,1.49-17.91.76-13.64,1.24-27.29,2.03-40.93.39-6.63,1.21-13.24,1.86-19.86.83-8.51,1.55-17.04,2.55-25.53.97-8.16,2.31-16.27,3.37-24.42,1.21-9.37,2.38-18.76,3.4-28.15.85-7.86,1.48-15.75,2.17-23.63.31-3.52-1.13-5.12-4.92-5.25-17.58-.63-34.96.55-51.7,6.29-8.54,2.93-16.77,6.76-25.39,10.29,0-5.37-.25-10.75.08-16.1.26-4.41-1.23-6.65-5.75-6.12-3.76.45-7.46,1.42-11.22,1.78-14.51,1.4-29.16,1.87-43.52,4.16-14.34,2.29-28.51,5.92-42.52,9.83-5.92,1.65-11.24,4.98-15.45,10.38-7.98,10.22-9.83,22.37-12.55,34.29-.88,3.86,1.29,5.59,6,4.5,7.37-1.7,14.67-3.77,21.85-6.12,8.24-2.7,16.47-4.23,26.67-2.3-2.57,3.67-4.08,7.33-6.8,9.44-9.61,7.44-11.89,18.59-14.94,29.09-3.23,11.14-5.04,22.69-7.42,34.07-2.77,13.28-5.84,26.51-8.12,39.88-2.5,14.65-4.18,29.44-6.34,44.15-2.33,15.9-4.95,31.76-7.07,47.69-.34,2.57.58,5.86,2.07,8.02,6.6,9.56,15.76,15.55,27.37,17.03,7.1.91,7.57.41,9.33-6.96.87-3.66,1.1-7.49,1.38-11.26.77-10.45,1.06-20.94,2.2-31.34,1.55-14.12,3.68-28.18,5.62-42.26,1.63-11.83,3.26-23.67,5.06-35.48,1.43-9.41,2.95-18.81,4.75-28.16,2.21-11.42,4.72-22.78,7.17-34.15,2.6-12.04,5.51-24.01,7.86-36.1,1.99-10.22,3.69-11.84,14.23-12.34,7.26-.35,14.5-1.19,21.76-1.69,1.84-.13,3.71.24,6.19.43-2.06,7.35-7.05,13.56-5.12,21.66,5.56-1.74,11.03-3.17,16.28-5.16,5.81-2.2,11.44-2.24,19.14-.45-3.38,3.63-5.44,6.26-7.91,8.43-7.45,6.57-13.91,13.39-16.75,23.62-7.74,27.95-16.59,55.59-24.44,83.52-4.87,17.32-8.92,34.87-12.94,52.41-2.88,12.58-4.93,25.35-7.69,37.96-2.45,11.2,2.13,16.45,13.06,13.02,8.06-2.53,15.53-6.98,23.19-10.72,3.72-1.82,5.56-4.76,5.12-9.17-1-10.05,2.08-19.51,4.85-28.93.74-2.51,2.38-5.81,4.48-6.7,9.01-3.8,18.3-7.15,27.93-4.62Zm112.53,332.32c2.01,4.92,2.63,9.45,5.21,11.96,3.03,2.95,7.59,4.74,11.79,5.98,9.02,2.66,15.5-2.37,15.73-11.68.13-5.11-.27-10.25.26-15.31.94-9.1,2.49-18.14,3.61-27.23,1.39-11.28,1.86-22.74,4.08-33.84,3.84-19.13,8.64-38.06,13.28-57.02.64-2.62,1.19-6.08,5.54-7.18,0,3.43.4,6.35-.07,9.12-2.18,12.87,2.49,23.33,11.09,32.41,5.06,5.34,10.35,10.45,15.44,15.75,1.51,1.58,3.65,3.39,3.85,5.27,1.11,10.6.77,20.93-7.18,29.48-7.92,8.52-16.78,15.48-28.08,18.97-3.93,1.22-5.91,4.05-4.15,8.02,2.94,6.63,5.64,13.55,9.71,19.47,6.39,9.28,15.99,11.36,25.5,5.66,10.06-6.03,19.85-12.81,25.95-23.25,5.57-9.53,10.31-19.54,15.8-29.11,3.29-5.74,2.55-11.74,2.19-17.71-.7-11.61-6.86-20.74-13.85-29.54-5.31-6.68-10.76-13.42-14.82-20.85-2.76-5.06-5.23-11.72-4.31-17.06,2.15-12.52,7.42-24.01,16.62-33.56,9.98-10.36,20.54-19.84,32.51-27.88,3.79-2.54,8.67-6.39,9.26-10.22,2.19-14.13.34-28-8.56-39.99-4.06-5.46-6.5-5.67-11.48-1.08-9.35,8.62-18.72,17.24-27.82,26.13-20,19.55-34.88,42.51-44.88,68.87-6.37-1.4-12.18-4.63-19.24-1.76-6.21,2.52-13.3,2.76-19.88,4.49-10.3,2.7-16.47,11.2-23.96,17.81,1.77,6.99-3.83,12.06-4.8,18.36-1.08,6.99.66,8.6,7.62,6.54,6.63-1.96,13.22-4.08,19.89-5.9,1.31-.36,3.6-.17,4.2.66.68.93.46,3.24-.28,4.3-1.16,1.66-2.96,3-4.73,4.07-5.4,3.27-8.77,8.63-10.26,14.02-2.62,9.49-3.41,19.48-4.97,29.26-.2,1.25.03,3.08-.71,3.67-4.87,3.89-9.33,8.82-16.26,8.72-6.44-.1-8.33-5.15-9.87-10.07-3.81-12.26-4.12-24.46-2.43-37.43,2.75-21.07,8.85-40.67,19.67-58.73,4.68-7.81,10.5-14.99,16.27-22.08,8.79-10.79,20.22-18.19,32.8-23.89,5.03-2.28,8.22-5.88,8.5-11.65.6-12.04-2.05-23.28-7.78-33.89-1.84-3.4-4-4.87-7.66-3.01-4.2,2.13-8.51,4.09-12.55,6.49-13.86,8.25-24.25,20.14-34.2,32.57-31.48,39.34-45.47,84.81-47.19,134.52-.24,6.9,1.53,13.85,1.75,20.8.39,12.01,4.54,22.9,9.1,33.74,4.05,9.61,20.45,18.53,29.94,16.71,5.24-1,10.47-2.05,14.8-2.9Zm-226.91-81.56c1.96,4.46,3.55,6.77,3.98,9.29,1.55,9,3.02,18.03,3.96,27.11,1.84,17.7,6.9,34.51,13.14,51.05,2.49,6.61,4.95,8.54,11.14,5.8,6.22-2.75,11.68-7.25,17.42-11.05,4.51-2.99,4.32-6.51,2.56-11.51-4.43-12.59-8.31-25.41-11.59-38.34-2.54-10.02-4.13-20.32-5.57-30.57-.8-5.68.47-10.59,4.8-15.63,6.48-7.55,11.53-16.48,16.37-25.28,7.28-13.24,9.05-28.07,11.7-42.75,3.18-17.64,1.63-34.83-2.28-51.9-3.33-14.53-11.52-25.57-27.08-28.45-16.01-2.96-31.59-.71-46.35,6.42-5.38,2.6-9.45,6.39-11.31,12.28-3.04,9.62-6.35,19.16-9.14,28.85-1.17,4.06,1.12,5.94,5.37,5.01,2.16-.47,4.21-1.45,6.37-1.92,3.06-.67,6.18-1.52,9.27-1.49,3.83.04,4.82,2.57,2.53,5.72-.93,1.28-2.18,2.34-3.33,3.45-5.21,5.02-8.61,10.76-9.07,18.29-.27,4.35-1.91,8.61-2.84,12.93-2.85,13.26-6.06,26.46-8.39,39.81-3.03,17.37-5.52,34.85-7.92,52.33-2.1,15.29-3.72,30.64-5.61,45.96-.35,2.81-1.21,5.57-1.34,8.37-.18,4.07-1.14,8.72.41,12.13,4.43,9.78,24.63,13.93,32.89,7.22,1.24-1.01,2.62-3.57,2.16-4.67-3.22-7.62-.5-14.94.26-22.45,1.66-16.37,2.59-32.81,4.11-49.19.45-4.84,1.89-9.59,3.38-16.82Zm59.84,28.87c0,7.32-.5,13.13.14,18.82.62,5.57,1.84,11.21,3.77,16.47,6.06,16.52,24.65,24.6,41.14,18.02,3.35-1.34,6.91-2.3,10.01-4.07,2.57-1.47,3.91-.53,5.82.98,7.56,5.95,16.37,7.58,25.8,7.41,4.16-.08,5.43-1.56,5.56-5.63.37-11.41,1.13-22.81,1.86-34.2.55-8.53,1.16-17.05,1.97-25.56.57-5.96,1.15-11.96,2.35-17.82,4.11-20.01,8.36-39.98,12.81-59.92,4.87-21.84,9.96-43.62,15.04-65.41,2.36-10.14,4.95-20.23,7.39-30.35,1.84-7.62.94-8.73-7.2-8.87-3.83-.06-7.67.03-11.5.07-11.55.12-14.91,2.06-17.81,12.99-5.18,19.5-10.02,39.09-14.36,58.79-4.27,19.42-7.95,38.98-11.49,58.54-2.36,13.01-4.02,26.15-6.04,39.23-1.2,7.78-2.3,15.58-3.81,23.3-1.2,6.15-9.04,11.22-15.58,10.56-5.08-.51-8.9-5.6-9.37-12.57-.09-1.27.03-2.56-.03-3.84-.89-18.82,2.35-37.18,5.67-55.6,5.72-31.74,13.07-63.02,24.14-93.37,3.37-9.24,2.61-10.65-6.07-15.62-6.49-3.71-13.59-4.65-20.79-5.96-4.15-.75-5.93-.52-6.8,3.55-.4,1.84-1.2,3.59-1.64,5.43-7.54,31.9-15.49,63.71-22.42,95.73-5.01,23.16-9.74,46.49-8.57,68.9Zm322.49-462.07c.76-13.5-3.07-24.46-9.74-34.48-3.84-5.77-5.14-6.22-10.64-2.33-6.72,4.75-13.25,9.88-19.31,15.44-12.92,11.86-24.71,24.86-35.08,39-13.56,18.49-25.14,38.12-29.94,60.87-1.53,7.27-2.39,15.05-1.58,22.37,1.66,14.95,10.11,25.91,22.36,34.64,13.87,9.88,16.62,23.44,8.98,38.69-5.18,10.34-13.61,17.49-23.6,22.85-4.73,2.54-9.87,4.31-14.66,6.74-1.45.74-3.6,2.89-3.34,3.78,3.8,12.88,8.16,25.62,20.21,33.41,2.06,1.33,5.53,1.81,7.88,1.12,12.65-3.73,24.22-9.96,33.06-19.73,10.24-11.31,17.88-24.29,23.23-38.9,6.26-17.09,4.37-32.29-6.12-46.75-7.07-9.74-14.19-19.45-21.31-29.15-4.11-5.6-6.16-12.33-5.32-18.76,1.75-13.44,7.44-25.79,16.44-35.87,10.8-12.09,22.33-23.64,36.81-31.55,9.08-4.96,13.99-11.9,11.64-21.4Z"/>
  </g>
</svg>