<?xml version="1.0" encoding="UTF-8"?>
<svg id="Layer_2" data-name="Layer 2" xmlns="http://www.w3.org/2000/svg" viewBox="0 0 888.81 884.21">
  <defs>
    <style>
      .cls-1 {
        fill: none;
        stroke: #dadadaff;
        stroke-miterlimit: 10;
        stroke-width: .5px;
      }
    </style>
  </defs>
  <g id="Base">
    <g>
      <path class="cls-1" d="m322.04,18.09c4.08.32,8.23.26,12.22,1.03,13.67,2.65,26.65.81,37.83-7.4,17.08-12.54,34.62-14.74,54.03-5.96,12.36,5.59,25.33,4.83,37.67-.45,17.93-7.67,34.84-7.02,50.84,4.66,14.75,10.77,31.51,9.8,48.16,7.7,13.5-1.71,25.18,1.26,34.6,10.91,13.82,14.15,29.66,22.45,50.05,22.5,14.79.03,26.39,7.58,34.11,20.44,9.73,16.22,23.44,26.51,42.23,30.57,13.81,2.98,23.7,11.76,28.34,25.28,6.4,18.64,18.51,31.71,36.13,40.28,12.76,6.2,20.42,16.7,22.31,30.82,2.64,19.78,11.75,35.34,27.81,47.38,11.63,8.71,16.89,21.23,15.55,35.68-1.7,18.36,3.48,34.1,15.42,47.94,10.33,11.97,12.56,26,8.46,40.79-4.8,17.27-3.34,33.54,4.94,49.38,7.87,15.05,7.78,30.15-.21,45.21-8.05,15.17-9.78,30.9-4.6,47.47,4.68,14.97,1.73,28.79-8.35,40.69-12.08,14.25-17.04,30.42-15.54,48.97,1.24,15.3-4.7,27.88-16.86,37.01-15.22,11.43-23.88,26.34-26.35,45.11-1.96,14.87-9.8,25.78-23.29,32.21-16.83,8.03-28.01,20.66-34.17,38.31-4.76,13.63-14.44,23.01-28.59,26.5-20.03,4.93-35.1,15.88-45.75,33.62-7.79,12.97-20.26,18.2-35.11,18.52-15.67.34-29.74,4.79-40.79,16.6-12.72,13.6-27.58,19.9-46.66,15.84-16.09-3.42-31.16.35-44.77,9.98-12.48,8.83-26.12,10.54-40.27,4.61-17.48-7.33-34.74-7.61-52.15.1-13.5,5.98-26.63,4.32-38.56-3.83-16.67-11.38-34.59-13.85-54.05-10.12-12.64,2.42-24.03-1.6-32.91-10.51-14.4-14.44-30.6-23.23-51.67-23.49-15-.18-27.01-7.93-34.94-20.98-9.81-16.16-23.45-26.7-42.19-30.68-14.37-3.05-24.28-12.07-29.05-25.78-6.39-18.33-18.26-31.14-35.56-39.56-13.42-6.54-21.16-17.69-23.13-32.43-2.41-18.09-10.38-32.78-25.1-43.71-13.56-10.07-19.25-23.89-17.99-40.37,1.28-16.62-3.17-31.04-14.04-43.63-11.2-12.97-13.78-27.72-9.38-44.16,4.31-16.08,3.11-31.75-4.73-46.75-7.7-14.74-7.67-29.57.33-44.25,8.26-15.16,9.8-30.98,4.84-47.48-4.64-15.43-1.5-29.28,8.8-41.49,11.57-13.71,16.43-29.57,15.14-47.28-1.24-16.93,5.4-30.05,18.66-40.04,13.53-10.2,21.44-23.46,23.62-40.34,2.17-16.82,10.76-29.29,26.34-36.58,14.71-6.89,24.89-17.85,30.25-33.27,5.95-17.11,17.74-27.84,35.42-32.01,15.78-3.73,28.26-12.17,36.52-26.23,9.63-16.41,23.92-24.63,42.76-24.58,16.28.04,28.86-7.14,39.97-18.33,9.1-9.18,19.28-16.54,33.43-14.38Zm67.12,357.41c0,15.63-.13,29.36.04,43.08.2,15.79,3.68,18.48,18.88,14.96,2.75-.64,5.41-1.63,8.09-2.53,8.88-3.01,13.27-7.81,12.81-18.6-2.36-55.48.43-110.81,6.86-165.96,3.09-26.5,6.11-53.01,9.32-80.97-29.83-2.21-57.31,3.54-83.49,19.13.75-4.77,1.43-8.76,2-12.76,1.52-10.65.58-12.64-9.71-11.2-28.9,4.06-57.93,7.88-86.38,14.17-21.79,4.82-33.78,26.36-30.71,49.66,13.33-3.64,26.54-7.52,39.92-10.69,3.23-.76,7.02.84,10.55,1.35-1.46,3.18-2.63,6.54-4.45,9.5-4.04,6.57-10.87,12.46-12.26,19.48-10.74,54.25-20.8,108.65-30.32,163.13-3.43,19.6,8.59,32.8,28.82,34.37,5.05.39,7.7-1.13,8.01-6.51.49-8.48,1.37-16.94,2.02-25.42,5-65.73,16.63-130.38,32.24-194.34.77-3.15,5.26-7.13,8.5-7.63,10.33-1.59,20.88-1.72,31.58-2.43-2.11,7.41-4.13,14.5-6.32,22.22,12.32-2.38,22.36-9.93,36.75-5.75-4.04,4.39-6.44,8.04-9.75,10.39-7.87,5.59-12.22,13.06-14.75,22.21-11.06,39.99-22.79,79.8-33.39,119.91-4.65,17.57-7.74,35.62-10.44,53.62-1.4,9.34,2.57,12.38,11.7,9.65,7.45-2.23,14.73-5.64,21.34-9.73,3.02-1.87,5.2-6.4,6.09-10.13,2.18-9.13,3.04-18.58,5.21-27.72.69-2.91,3.31-6.67,5.91-7.59,8.37-2.95,17.15-4.75,25.33-6.89Zm-112.24,250.95c.99,0,1.99,0,2.98,0,.55,2.9,1.05,5.81,1.67,8.7,4.91,23.03,9.14,46.23,14.99,69.01,4.15,16.16,9.54,17.36,23.07,7.73,1.79-1.28,3.4-2.83,5.26-4,5.49-3.45,5.53-7.58,3.73-13.63-5.2-17.42-9.53-35.11-13.92-52.77-3.49-14.05-2.08-25.64,8.05-38.57,22.3-28.47,25-62.93,21.76-97.94-.12-1.25-.48-2.47-.7-3.71-4.92-28.38-18.31-38.8-47.08-36.64-31.27,2.34-48.95,23.09-45.27,52.44,7.52-1.39,15.1-2.8,22.89-4.24.27,3.08.51,3.74.34,4.28-.28.88-.62,1.94-1.29,2.46-10.94,8.52-12.77,20.96-14.84,33.45-1.8,10.85-4.71,21.52-6.28,32.39-5.64,38.88-10.9,77.81-16.38,116.71-1.22,8.66,3.43,13.24,10.9,14.98,5.08,1.18,10.53.94,15.81,1.02,5.2.08,6.67-2.86,6.83-7.89.47-14.78,1.11-29.57,2.43-44.29,1.18-13.21,3.33-26.34,5.05-39.5Zm192.35-158.53c-21.29-5.15-35.48,2.38-39.19,21.22-10.87,55.15-21.23,110.39-31.41,165.67-1.74,9.47-8.71,10.82-15.64,12.02-7.02,1.22-9.57-4.67-10.1-9.97-.84-8.39-1.16-17.02-.18-25.37,5.21-44.13,14.36-87.41,29.08-129.45,1.03-2.96.23-8.4-1.88-10.29-8.23-7.4-18.64-9.36-29.73-9.94-3.65,13.9-7.22,26.92-10.49,40.01-10.2,40.88-20.18,81.87-22.44,124.12-.71,13.3-.05,27.23,3.2,40.06,4.6,18.13,20.5,25.42,38.23,19.97,5.08-1.56,9.93-3.87,15.34-6.01,8.93,9.52,20.59,9.55,32.93,9.27,1.22-83.15,23.96-161.58,42.28-241.31Zm72.78-3.02c-9.23,5.95-18.44,10.38-25.8,16.89-37.55,33.2-59.48,75.09-66.39,124.64-3.58,25.68-4.49,51.41,3.53,76.65,4.41,13.88,13.35,23.29,28.1,24.14,6.95.4,14.13-3.17,21.19-4.94,1.22,17.56,11.54,24.1,29.52,18.05,2.91-53.81,10.84-107.07,28.27-158.44-29.33-11.95-65.12,15.01-63.56,47.27,5.1-1.85,10.01-3.94,15.1-5.38,4.99-1.41,10.17-2.16,15.27-3.2-.35,4.28-1.2,6.63-2.85,7.55-13.12,7.33-14.85,20.03-16.12,33.06-.3,3.13-1.22,6.21-1.32,9.34-.32,10.28-8.07,13.05-15.77,14.41-8.41,1.48-10.07-5.72-11.71-11.91-.8-3.02-1.5-6.11-1.86-9.21-5.95-51.12,21.55-103.43,66.95-128.57,3.82-2.11,7.8-7.09,8.43-11.24,2.06-13.51-1.63-26.05-10.98-39.12Zm-47.49-83.32c9.07-53.18,17.88-103.58,26.07-154.07,1.6-9.87,6.21-13.03,15.58-13.25,5.61-.13,13.57-.95,16.3-4.59,9.79-13.06,13.18-28.55,12.03-45.91-30.6,1.42-59.84,4.9-87.13,17.28-15.38,6.97-25.5,30.1-22.55,48.21,15.36-3.04,29.97-10.96,48.01-8.23-1.83,3.9-2.37,7.53-4.46,9.09-11.47,8.57-13.63,20.98-15.71,33.91-5.71,35.35-12.58,70.52-17.7,105.95-2.62,18.11-1.4,18.13-19.54,22.04-3.16.68-7.86,2.85-8.47,5.21-2.51,9.68-4.22,19.66-5.22,29.62-.73,7.31,2.58,11.96,11.14,11.25,23.05-1.91,45.46-6.54,66.43-16.43,14.53-6.85,23.3-32.31,16.96-47.26-9.34,2.11-18.72,4.23-31.74,7.17Zm143.85-222.8c-31.84,24.2-59.07,52.57-76.87,88.9-5.05,10.31-8.89,21.62-10.97,32.89-3.95,21.43,4.06,38.89,21.5,51.9,18.69,13.95,14.22,32.73,3.75,44.39-7.14,7.95-16.56,14.3-25.94,19.66-10.92,6.23-11.39,5.43-6.8,17.35.68,1.76,1.39,3.51,2.2,5.21,8.91,18.74,18.79,21.98,36.87,11.61,21.39-12.26,33.4-31.81,41.07-54.46,4.83-14.28,3.45-27.95-5.44-40.38-5.67-7.93-11.88-15.47-17.6-23.36-12.54-17.29-12.93-31.73-2.09-49.87,10.77-18.02,26.13-31.15,43.38-42.58,4.51-2.99,9.48-7.03,11.46-11.75,5.61-13.37-2.3-38.87-14.5-49.52Zm-88.94,526.93c2.02,5.52,3.56,10.92,5.92,15.93,8.06,17.16,16.47,19.98,32.91,10.69,21.02-11.89,32.15-31.17,38.88-53.56,3.42-11.38,1.18-21.91-5.29-31.46-5.29-7.8-11.23-15.17-16.99-22.65-11.44-14.84-11.07-30.08-1.67-45.65,10-16.56,24.36-28.57,40.26-39.14,3.95-2.62,8.79-6.6,9.66-10.7,3.53-16.59-1.24-31.39-12.57-44.87-29.33,22.27-53.62,47.76-70.04,80.08-3.67,7.23-6.59,14.98-8.77,22.8-5.93,21.23-2.25,40.07,16.09,54.07,17.97,13.73,16.62,28.65,3.17,44.53-5.48,6.46-13.91,10.49-21.21,15.31-2.81,1.85-6.21,2.81-10.37,4.62Z"/>
      <path class="cls-1" d="m389.16,375.5c-8.19,2.13-16.96,3.94-25.33,6.89-2.6.92-5.22,4.67-5.91,7.59-2.16,9.14-3.02,18.59-5.21,27.72-.89,3.73-3.07,8.26-6.09,10.13-6.61,4.09-13.9,7.5-21.34,9.73-9.13,2.73-13.1-.31-11.7-9.65,2.7-18,5.79-36.05,10.44-53.62,10.6-40.11,22.33-79.92,33.39-119.91,2.53-9.15,6.88-16.61,14.75-22.21,3.32-2.36,5.71-6.01,9.75-10.39-14.39-4.19-24.43,3.37-36.75,5.75,2.2-7.72,4.21-14.81,6.32-22.22-10.71.71-21.26.84-31.58,2.43-3.23.5-7.73,4.47-8.5,7.63-15.61,63.96-27.24,128.6-32.24,194.34-.64,8.47-1.53,16.93-2.02,25.42-.31,5.38-2.96,6.91-8.01,6.51-20.23-1.57-32.24-14.78-28.82-34.37,9.52-54.48,19.58-108.88,30.32-163.13,1.39-7.02,8.21-12.9,12.26-19.48,1.82-2.96,2.99-6.32,4.45-9.5-3.53-.51-7.32-2.12-10.55-1.35-13.38,3.17-26.59,7.05-39.92,10.69-3.07-23.3,8.92-44.84,30.71-49.66,28.45-6.29,57.48-10.11,86.38-14.17,10.29-1.45,11.22.55,9.71,11.2-.57,4-1.25,7.99-2,12.76,26.19-15.59,53.66-21.33,83.49-19.13-3.22,27.95-6.23,54.47-9.32,80.97-6.43,55.15-9.22,110.49-6.86,165.96.46,10.79-3.94,15.59-12.81,18.6-2.68.91-5.34,1.9-8.09,2.53-15.2,3.52-18.69.83-18.88-14.96-.17-13.73-.04-27.46-.04-43.08Zm13.05-136.47c-16.46,30.54-26.72,62.94-33.78,97.63,5.97-1.05,10.77-2.21,15.65-2.66,6.48-.6,9.02-3.49,9.16-10.25.17-8.43,1.89-16.82,2.79-25.25,2.11-19.82,4.13-39.65,6.18-59.48Z"/>
      <path class="cls-1" d="m276.92,626.45c-1.72,13.16-3.87,26.29-5.05,39.5-1.31,14.72-1.96,29.51-2.43,44.29-.16,5.03-1.63,7.97-6.83,7.89-5.29-.08-10.74.17-15.81-1.02-7.47-1.74-12.12-6.33-10.9-14.98,5.48-38.9,10.73-77.84,16.38-116.71,1.58-10.87,4.49-21.54,6.28-32.39,2.07-12.5,3.9-24.94,14.84-33.45.67-.52,1.01-1.59,1.29-2.46.17-.53-.07-1.2-.34-4.28-7.79,1.44-15.37,2.85-22.89,4.24-3.68-29.35,14-50.1,45.27-52.44,28.78-2.15,42.17,8.27,47.08,36.64.22,1.24.58,2.46.7,3.71,3.24,35.01.54,69.47-21.76,97.94-10.13,12.93-11.54,24.52-8.05,38.57,4.39,17.66,8.72,35.34,13.92,52.77,1.81,6.05,1.76,10.18-3.73,13.63-1.86,1.17-3.47,2.72-5.26,4-13.53,9.64-18.93,8.43-23.07-7.73-5.85-22.78-10.08-45.99-14.99-69.01-.62-2.89-1.12-5.8-1.67-8.7-.99,0-1.99,0-2.98,0Zm6.45-35.75c.84.57,1.68,1.13,2.52,1.7,3.86-2.84,8.51-5.03,11.43-8.63,13.44-16.57,19.47-35.68,17.17-57.03-.46-4.26-1.98-8.67-4.1-12.4-1.23-2.17-4.58-4.18-7.03-4.24-1.74-.05-4.29,2.97-5.21,5.15-1.56,3.72-2.33,7.83-3.08,11.84-3.96,21.2-7.82,42.41-11.71,63.62Z"/>
      <path class="cls-1" d="m469.27,467.92c-18.32,79.74-41.05,158.16-42.28,241.31-12.34.28-24,.26-32.93-9.27-5.41,2.14-10.26,4.45-15.34,6.01-17.73,5.45-33.63-1.84-38.23-19.97-3.25-12.83-3.91-26.76-3.2-40.06,2.26-42.24,12.24-83.23,22.44-124.12,3.27-13.09,6.83-26.11,10.49-40.01,11.1.58,21.5,2.54,29.73,9.94,2.1,1.89,2.91,7.33,1.88,10.29-14.71,42.04-23.87,85.31-29.08,129.45-.99,8.35-.66,16.98.18,25.37.53,5.3,3.08,11.19,10.1,9.97,6.92-1.2,13.89-2.56,15.64-12.02,10.18-55.28,20.55-110.52,31.41-165.67,3.71-18.83,17.9-26.36,39.19-21.22Z"/>
      <path class="cls-1" d="m542.06,464.9c9.35,13.07,13.03,25.62,10.98,39.12-.63,4.15-4.61,9.13-8.43,11.24-45.4,25.14-72.9,77.45-66.95,128.57.36,3.1,1.06,6.18,1.86,9.21,1.64,6.19,3.3,13.39,11.71,11.91,7.7-1.36,15.44-4.13,15.77-14.41.1-3.12,1.02-6.21,1.32-9.34,1.27-13.03,3-25.73,16.12-33.06,1.65-.92,2.5-3.27,2.85-7.55-5.1,1.04-10.28,1.79-15.27,3.2-5.09,1.44-10,3.53-15.1,5.38-1.55-32.26,34.23-59.22,63.56-47.27-17.43,51.37-25.36,104.63-28.27,158.44-17.98,6.05-28.3-.49-29.52-18.05-7.07,1.77-14.25,5.34-21.19,4.94-14.75-.85-23.69-10.26-28.1-24.14-8.02-25.24-7.11-50.98-3.53-76.65,6.91-49.55,28.85-91.43,66.39-124.64,7.37-6.51,16.58-10.94,25.8-16.89Z"/>
      <path class="cls-1" d="m494.57,381.57c13.02-2.94,22.4-5.06,31.74-7.17,6.34,14.95-2.43,40.41-16.96,47.26-20.97,9.89-43.38,14.52-66.43,16.43-8.56.71-11.87-3.94-11.14-11.25,1-9.97,2.71-19.94,5.22-29.62.61-2.36,5.31-4.53,8.47-5.21,18.14-3.91,16.92-3.93,19.54-22.04,5.12-35.43,11.99-70.6,17.7-105.95,2.09-12.93,4.25-25.33,15.71-33.91,2.09-1.56,2.63-5.19,4.46-9.09-18.04-2.74-32.65,5.19-48.01,8.23-2.94-18.11,7.18-41.24,22.55-48.21,27.29-12.38,56.53-15.86,87.13-17.28,1.15,17.36-2.24,32.85-12.03,45.91-2.73,3.64-10.69,4.46-16.3,4.59-9.37.22-13.98,3.38-15.58,13.25-8.19,50.5-17,100.89-26.07,154.07Z"/>
      <path class="cls-1" d="m638.42,158.77c12.2,10.65,20.11,36.16,14.5,49.52-1.98,4.72-6.95,8.76-11.46,11.75-17.24,11.44-32.61,24.56-43.38,42.58-10.84,18.14-10.44,32.59,2.09,49.87,5.72,7.89,11.93,15.43,17.6,23.36,8.89,12.43,10.27,26.1,5.44,40.38-7.67,22.65-19.68,42.2-41.07,54.46-18.08,10.36-27.96,7.13-36.87-11.61-.81-1.7-1.52-3.45-2.2-5.21-4.58-11.92-4.11-11.12,6.8-17.35,9.38-5.36,18.8-11.71,25.94-19.66,10.48-11.66,14.95-30.45-3.75-44.39-17.44-13.01-25.45-30.47-21.5-51.9,2.08-11.28,5.92-22.58,10.97-32.89,17.8-36.33,45.03-64.7,76.87-88.9Z"/>
      <path class="cls-1" d="m549.48,685.7c4.15-1.81,7.56-2.77,10.37-4.62,7.3-4.81,15.73-8.84,21.21-15.31,13.45-15.88,14.81-30.8-3.17-44.53-18.34-14.01-22.02-32.84-16.09-54.07,2.18-7.81,5.1-15.57,8.77-22.8,16.41-32.32,40.71-57.81,70.04-80.08,11.33,13.48,16.1,28.28,12.57,44.87-.87,4.11-5.71,8.08-9.66,10.7-15.91,10.57-30.26,22.57-40.26,39.14-9.4,15.57-9.77,30.8,1.67,45.65,5.76,7.48,11.7,14.84,16.99,22.65,6.47,9.55,8.71,20.08,5.29,31.46-6.73,22.39-17.87,41.67-38.88,53.56-16.44,9.3-24.85,6.48-32.91-10.69-2.35-5.02-3.89-10.41-5.92-15.93Z"/>
      <path class="cls-1" d="m402.22,239.04c-2.05,19.83-4.07,39.66-6.18,59.48-.9,8.43-2.61,16.82-2.79,25.25-.14,6.75-2.68,9.64-9.16,10.25-4.87.45-9.68,1.62-15.65,2.66,7.06-34.69,17.32-67.09,33.78-97.63Z"/>
      <path class="cls-1" d="m283.37,590.7c3.89-21.21,7.74-42.43,11.71-63.62.75-4.01,1.51-8.11,3.08-11.84.92-2.18,3.47-5.2,5.21-5.15,2.45.07,5.8,2.08,7.03,4.24,2.11,3.73,3.64,8.14,4.1,12.4,2.3,21.35-3.73,40.45-17.17,57.03-2.92,3.6-7.57,5.79-11.43,8.63-.84-.57-1.68-1.13-2.52-1.7Z"/>
    </g>
  </g>
</svg>