<?xml version="1.0" encoding="UTF-8"?>
<svg id="Layer_2" data-name="Layer 2" xmlns="http://www.w3.org/2000/svg" viewBox="0 0 888.31 883.71">
  <g id="Base">
    <path fill='none' stroke='lightGray' stroke-width='2px' id="LogoShape" d="m321.79,17.84c4.08.32,8.23.26,12.22,1.03,13.67,2.65,26.65.81,37.83-7.4,17.08-12.54,34.62-14.74,54.03-5.96,12.36,5.59,25.33,4.83,37.67-.45,17.93-7.67,34.84-7.02,50.84,4.66,14.75,10.77,31.51,9.8,48.16,7.7,13.5-1.71,25.18,1.26,34.6,10.91,13.82,14.15,29.66,22.45,50.05,22.5,14.79.03,26.39,7.58,34.11,20.44,9.73,16.22,23.44,26.51,42.23,30.57,13.81,2.98,23.7,11.76,28.34,25.28,6.4,18.64,18.51,31.71,36.13,40.28,12.76,6.2,20.42,16.7,22.31,30.82,2.64,19.78,11.75,35.34,27.81,47.38,11.63,8.71,16.89,21.23,15.55,35.68-1.7,18.36,3.48,34.1,15.42,47.94,10.33,11.97,12.56,26,8.46,40.79-4.8,17.27-3.34,33.54,4.94,49.38,7.87,15.05,7.78,30.15-.21,45.21-8.05,15.17-9.78,30.9-4.6,47.47,4.68,14.97,1.73,28.79-8.35,40.69-12.08,14.25-17.04,30.42-15.54,48.97,1.24,15.3-4.7,27.88-16.86,37.01-15.22,11.43-23.88,26.34-26.35,45.11-1.96,14.87-9.8,25.78-23.29,32.21-16.83,8.03-28.01,20.66-34.17,38.31-4.76,13.63-14.44,23.01-28.59,26.5-20.03,4.93-35.1,15.88-45.75,33.62-7.79,12.97-20.26,18.2-35.11,18.52-15.67.34-29.74,4.79-40.79,16.6-12.72,13.6-27.58,19.9-46.66,15.84-16.09-3.42-31.16.35-44.77,9.98-12.48,8.83-26.12,10.54-40.27,4.61-17.48-7.33-34.74-7.61-52.15.1-13.5,5.98-26.63,4.32-38.56-3.83-16.67-11.38-34.59-13.85-54.05-10.12-12.64,2.42-24.03-1.6-32.91-10.51-14.4-14.44-30.6-23.23-51.67-23.49-15-.18-27.01-7.93-34.94-20.98-9.81-16.16-23.45-26.7-42.19-30.68-14.37-3.05-24.28-12.07-29.05-25.78-6.39-18.33-18.26-31.14-35.56-39.56-13.42-6.54-21.16-17.69-23.13-32.43-2.41-18.09-10.38-32.78-25.1-43.71-13.56-10.07-19.25-23.89-17.99-40.37,1.28-16.62-3.17-31.04-14.04-43.63-11.2-12.97-13.78-27.72-9.38-44.16,4.31-16.08,3.11-31.75-4.73-46.75-7.7-14.74-7.67-29.57.33-44.25,8.26-15.16,9.8-30.98,4.84-47.48-4.64-15.43-1.5-29.28,8.8-41.49,11.57-13.71,16.43-29.57,15.14-47.28-1.24-16.93,5.4-30.05,18.66-40.04,13.53-10.2,21.44-23.46,23.62-40.34,2.17-16.82,10.76-29.29,26.34-36.58,14.71-6.89,24.89-17.85,30.25-33.27,5.95-17.11,17.74-27.84,35.42-32.01,15.78-3.73,28.26-12.17,36.52-26.23,9.63-16.41,23.92-24.63,42.76-24.58,16.28.04,28.86-7.14,39.97-18.33,9.1-9.18,19.28-16.54,33.43-14.38Z"/>
  </g>
</svg>